<?xml version="1.0" encoding="UTF-8" standalone="no"?>
<!-- Created with Inkscape (http://www.inkscape.org/) -->

<svg
   width="59.077251"
   height="67"
   viewBox="0 0 59.077251 67"
   id="svg3476"
   version="1.1"
   inkscape:version="1.3.1 (9b9bdc1480, 2023-11-25, custom)"
   sodipodi:docname="css.svg"
   xmlns:inkscape="http://www.inkscape.org/namespaces/inkscape"
   xmlns:sodipodi="http://sodipodi.sourceforge.net/DTD/sodipodi-0.dtd"
   xmlns="http://www.w3.org/2000/svg"
   xmlns:svg="http://www.w3.org/2000/svg"
   xmlns:rdf="http://www.w3.org/1999/02/22-rdf-syntax-ns#"
   xmlns:cc="http://creativecommons.org/ns#"
   xmlns:dc="http://purl.org/dc/elements/1.1/">
  <defs
     id="defs3478" />
  <sodipodi:namedview
     id="base"
     pagecolor="#ffffff"
     bordercolor="#666666"
     borderopacity="1.0"
     inkscape:pageopacity="0.0"
     inkscape:pageshadow="2"
     inkscape:zoom="4.8766667"
     inkscape:cx="23.171565"
     inkscape:cy="28.503076"
     inkscape:document-units="px"
     inkscape:current-layer="layer1"
     showgrid="false"
     fit-margin-top="0"
     fit-margin-left="0"
     fit-margin-right="0"
     fit-margin-bottom="0"
     inkscape:window-width="1920"
     inkscape:window-height="1016"
     inkscape:window-x="0"
     inkscape:window-y="1107"
     inkscape:window-maximized="1"
     units="px"
     inkscape:showpageshadow="2"
     inkscape:pagecheckerboard="0"
     inkscape:deskcolor="#d1d1d1" />
  <metadata
     id="metadata3481">
    <rdf:RDF>
      <cc:Work
         rdf:about="">
        <dc:format>image/svg+xml</dc:format>
        <dc:type
           rdf:resource="http://purl.org/dc/dcmitype/StillImage" />
        <dc:title />
      </cc:Work>
    </rdf:RDF>
  </metadata>
  <g
     inkscape:label="Calque 1"
     inkscape:groupmode="layer"
     id="layer1"
     transform="translate(-197.433,-739.48031)">
    <polygon
       style="fill:#264de4"
       points="107.644,470.877 74.633,100.62 437.367,100.62 404.321,470.819 255.778,512 "
       id="polygon2989"
       transform="matrix(0.1628666,0,0,0.16286645,185.27778,723.09269)" />
    <polygon
       style="fill:#2965f1"
       points="404.27,130.894 256,130.894 256,480.523 376.03,447.246 "
       id="polygon2991"
       transform="matrix(0.15557406,0,0,0.15557392,185.82204,723.82646)" />
    <polygon
       style="fill:#ebebeb"
       points="154.38,313.627 256,313.627 256,268.217 150.31,268.217 "
       id="polygon2993"
       transform="matrix(0.15557406,0,0,0.15557392,185.82204,723.82646)" />
    <polygon
       style="fill:#ebebeb"
       points="142.132,176.305 146.26,221.716 256,221.716 256,176.305 255.843,176.305 "
       id="polygon2995"
       transform="matrix(0.15557406,0,0,0.15557392,185.82204,723.82646)" />
    <polygon
       style="fill:#ebebeb"
       points="255.791,433.457 256,433.399 256,386.153 255.801,386.206 205.227,372.55 201.994,336.333 177.419,336.333 156.409,336.333 162.771,407.634 "
       id="polygon2997"
       transform="matrix(0.15557406,0,0,0.15557392,185.82204,723.82646)" />
    <polygon
       style="fill:#ffffff"
       points="255.843,386.191 255.843,433.435 348.937,407.634 349.62,399.962 360.291,280.411 361.399,268.217 369.597,176.305 255.843,176.305 255.843,221.716 319.831,221.716 315.699,268.217 255.843,268.217 255.843,313.627 311.761,313.627 306.49,372.521 "
       id="polygon3005"
       transform="matrix(0.15557406,0,0,0.15557392,185.82204,723.82646)" />
  </g>
</svg>
