<?xml version="1.0" encoding="UTF-8" standalone="no"?>
<svg
   viewBox="0 0 67 67"
   version="1.1"
   id="svg1"
   sodipodi:docname="square-js.svg"
   width="67"
   height="67"
   inkscape:version="1.3.1 (9b9bdc1480, 2023-11-25, custom)"
   xmlns:inkscape="http://www.inkscape.org/namespaces/inkscape"
   xmlns:sodipodi="http://sodipodi.sourceforge.net/DTD/sodipodi-0.dtd"
   xmlns="http://www.w3.org/2000/svg"
   xmlns:svg="http://www.w3.org/2000/svg">
  <defs
     id="defs1" />
  <sodipodi:namedview
     id="namedview1"
     pagecolor="#ffffff"
     bordercolor="#000000"
     borderopacity="0.25"
     inkscape:showpageshadow="2"
     inkscape:pageopacity="0.0"
     inkscape:pagecheckerboard="0"
     inkscape:deskcolor="#d1d1d1"
     inkscape:zoom="1.59375"
     inkscape:cx="224"
     inkscape:cy="224"
     inkscape:window-width="1920"
     inkscape:window-height="1016"
     inkscape:window-x="0"
     inkscape:window-y="1107"
     inkscape:window-maximized="1"
     inkscape:current-layer="svg1" />
  <!--!Font Awesome Free 6.5.1 by @fontawesome - https://fontawesome.com License - https://fontawesome.com/license/free Copyright 2024 Fonticons, Inc.-->
  <g
     id="g4"
     transform="matrix(0.14955357,0,0,0.14955357,0,-4.7857142)">
    <path
       fill="#f7df1e"
       d="M 448,96 C 448,60.7 419.3,32 384,32 H 64 C 28.7,32 0,60.7 0,96 v 320 c 0,35.3 28.7,64 64,64 h 320 c 35.3,0 64,-28.7 64,-64 z M 180.9,444.9 c -33.7,0 -53.2,-17.4 -63.2,-38.5 L 152,385.7 c 6.6,11.7 12.6,21.6 27.1,21.6 13.8,0 22.6,-5.4 22.6,-26.5 V 237.7 h 42.1 v 143.7 c 0,43.6 -25.6,63.5 -62.9,63.5 z m 85.8,-43 34.3,-19.8 c 9,14.7 20.8,25.6 41.5,25.6 17.4,0 28.6,-8.7 28.6,-20.8 0,-14.4 -11.4,-19.5 -30.7,-28 l -10.5,-4.5 c -30.4,-12.9 -50.5,-29.2 -50.5,-63.5 0,-31.6 24.1,-55.6 61.6,-55.6 26.8,0 46,9.3 59.8,33.7 L 368,290 c -7.2,-12.9 -15,-18 -27.1,-18 -12.3,0 -20.1,7.8 -20.1,18 0,12.6 7.8,17.7 25.9,25.6 l 10.5,4.5 c 35.8,15.3 55.9,31 55.9,66.2 0,37.8 -29.8,58.6 -69.7,58.6 -39.1,0 -64.4,-18.6 -76.7,-43 z"
       id="path1" />
    <path
       style="fill:#000000;stroke-width:0.627451"
       d="M 172.23529,444.15144 C 161.02497,443.07607 149.3333,439.10175 141.17647,433.59368 135.17844,429.54339 127.74741,422.06825 123.68659,416 c -3.41329,-5.10062 -5.54155,-9.19782 -5.02595,-9.67563 0.74446,-0.6899 32.65524,-19.81155 33.03719,-19.79663 0.25247,0.01 1.72962,2.18109 3.28256,4.82494 3.40432,5.79578 9.3194,12.00755 13.17647,13.83739 6.18806,2.93569 16.51293,3.03408 22.8791,0.21802 5.53965,-2.45045 8.95439,-7.89969 10.35366,-16.52237 0.40892,-2.51982 0.64183,-30.51663 0.64486,-77.51317 l 0.005,-73.56863 h 20.70588 20.70588 v 74.83999 c 0,76.99913 -0.10229,80.59412 -2.57491,90.49334 -1.56644,6.27127 -6.4868,16.4317 -10.24652,21.1588 -8.96162,11.26748 -23.48366,18.1739 -41.82685,19.89213 -7.90942,0.74089 -8.47406,0.73963 -16.56741,-0.0367 z"
       id="path3" />
    <path
       style="fill:#000000;stroke-width:0.627451"
       d="m 334.11765,444.17185 c -21.30954,-1.75006 -39.39482,-9.58073 -52.74243,-22.83669 -2.78088,-2.76179 -6.54693,-7.13908 -8.36899,-9.72732 -3.25019,-4.61686 -5.99559,-9.37229 -5.59902,-9.6983 0.11035,-0.0907 7.67298,-4.47361 16.80585,-9.73978 l 16.60521,-9.57485 0.96341,1.4648 c 10.72852,16.31183 23.52149,23.79993 40.61669,23.77415 10.1595,-0.0153 17.49082,-2.4243 23.09279,-7.58801 5.21959,-4.81125 7.02058,-11.73999 5.00199,-19.2436 -1.00658,-3.74168 -1.60106,-4.68287 -5.26491,-8.33555 -4.77287,-4.75832 -10.60704,-7.94021 -29.85569,-16.28297 -15.73831,-6.82131 -20.18138,-9.09557 -28.05425,-14.36005 -19.56878,-13.08538 -28.20363,-29.88012 -27.29184,-53.0825 0.60526,-15.40216 4.8243,-25.35219 15.18923,-35.82168 11.81377,-11.93296 26.10348,-17.28367 46.06796,-17.24991 21.68712,0.0367 35.85261,5.47703 48.25374,18.53219 4.8908,5.14875 11.13537,14.08768 10.32352,14.77784 -1.33774,1.13721 -31.62255,20.2 -31.76913,19.9971 -0.0936,-0.12955 -1.46787,-2.08523 -3.05396,-4.34596 -6.82499,-9.72801 -15.22804,-13.87932 -26.22775,-12.95714 -10.76108,0.90217 -17.41476,7.18163 -18.04002,17.02541 -0.33605,5.29042 0.44572,8.54613 2.96563,12.3505 3.53225,5.33273 10.51243,9.45719 30.14667,17.8131 29.89965,12.72466 44.20463,23.12114 52.28724,38.00101 8.23842,15.16671 8.80559,38.08859 1.33273,53.86107 -9.35128,19.7371 -28.462,31.01258 -56.4435,33.30209 -8.2813,0.6776 -8.01053,0.67848 -16.94117,-0.055 z"
       id="path4" />
  </g>
</svg>
