<?xml version="1.0" encoding="UTF-8" standalone="no"?>
<svg
   viewBox="0 0 67 67"
   version="1.1"
   id="svg1"
   sodipodi:docname="symfony.svg"
   inkscape:version="1.3.1 (9b9bdc1480, 2023-11-25, custom)"
   width="67"
   height="67"
   xmlns:inkscape="http://www.inkscape.org/namespaces/inkscape"
   xmlns:sodipodi="http://sodipodi.sourceforge.net/DTD/sodipodi-0.dtd"
   xmlns="http://www.w3.org/2000/svg"
   xmlns:svg="http://www.w3.org/2000/svg">
  <defs
     id="defs1" />
  <sodipodi:namedview
     id="namedview1"
     pagecolor="#ffffff"
     bordercolor="#000000"
     borderopacity="0.25"
     inkscape:showpageshadow="2"
     inkscape:pageopacity="0.0"
     inkscape:pagecheckerboard="false"
     inkscape:deskcolor="#d1d1d1"
     showgrid="false"
     inkscape:zoom="3.1875"
     inkscape:cx="190.7451"
     inkscape:cy="143.68627"
     inkscape:window-width="1920"
     inkscape:window-height="1016"
     inkscape:window-x="0"
     inkscape:window-y="1107"
     inkscape:window-maximized="1"
     inkscape:current-layer="svg1" />
  <!--!Font Awesome Free 6.5.1 by @fontawesome - https://fontawesome.com License - https://fontawesome.com/license/free Copyright 2024 Fonticons, Inc.-->
  <path
     d="M 33.5,0 C 14.993952,0 0,14.993952 0,33.500002 c 0,18.50605 14.993952,33.5 33.5,33.5 18.506049,0 33.5,-14.99395 33.5,-33.5 C 67,14.993952 52.006049,0 33.5,0 Z m 18.060283,19.384073 c -1.553428,0.05403 -2.620566,-0.878024 -2.674597,-2.282864 -0.04053,-1.242741 0.90504,-1.81008 0.878023,-2.553024 -0.02701,-0.891532 -1.377821,-0.918549 -1.742539,-0.905039 -5.37621,0.175603 -6.564919,7.699595 -7.95625,15.385686 2.890725,0.43226 4.957458,-0.0946 6.092137,-0.8375 1.620967,-1.05363 -0.445766,-2.12077 -0.189114,-3.32299 0.540323,-2.458464 4.40363,-2.566528 4.322582,0.71593 -0.05403,2.41795 -3.498589,5.64637 -10.482258,4.82238 -1.458871,8.0373 -2.485485,15.53427 -7.861695,21.84254 -3.917338,4.66028 -7.888709,5.37621 -9.671774,5.44375 -3.336491,0.12157 -5.538306,-1.66149 -5.619355,-4.0254 -0.08105,-2.29637 1.958671,-3.55262 3.28246,-3.59315 2.958266,-0.10806 4.065927,3.47158 2.012702,4.59274 -1.634476,1.31029 0.01351,1.70202 0.28367,1.70202 1.404837,-0.054 2.336894,-0.74294 2.99879,-1.21573 3.241935,-2.70161 4.484678,-7.41592 6.13266,-15.99354 1.107662,-6.71351 2.296371,-10.53629 2.458468,-11.07662 -2.282862,-1.72903 -3.660684,-3.8633 -6.740524,-4.68729 -2.107257,-0.56734 -3.390523,-0.081 -4.295564,1.05363 -1.067138,1.3508 -0.715927,3.10685 0.324193,4.14697 l 1.702016,1.89113 c 2.09375,2.41794 3.241936,4.30907 2.809679,6.83508 -0.688913,4.03891 -5.497783,7.14577 -11.198186,5.38972 -4.862904,-1.4994 -5.767944,-4.94395 -5.187097,-6.83508 1.013104,-3.26895 5.72742,-1.58045 4.67379,1.83709 -0.378226,1.1617 -0.661896,1.17521 -0.851008,1.76956 -0.621371,1.99919 5.659878,3.83629 6.889113,-0.18911 0.607862,-1.95867 -0.715927,-2.93125 -3.012298,-5.38972 -3.849799,-4.29556 -2.16129,-8.84778 0.405242,-10.76593 7.159274,-5.295158 13.60262,2.39093 14.966935,3.5121 5.025,-14.723791 13.575605,-14.251009 13.832258,-14.251009 3.404033,-0.108064 5.970565,1.431856 6.051613,3.876814 0.04052,1.040122 -0.567339,3.052824 -2.634072,3.120364 z"
     id="path1"
     style="display:inline;stroke-width:0.135081" />
  <path
     style="fill:#ffffff;fill-opacity:1;stroke-width:0.627451"
     d="m 18.196078,55.843137 c -1.687058,-1.687058 -1.581834,-3.521562 0.27165,-4.736012 2.796657,-1.83244 5.722159,1.37075 3.179331,3.48111 -1.447884,1.201637 -1.12498,1.882353 0.892911,1.882353 2.457169,0 5.319466,-2.933148 6.57901,-6.741863 0.542679,-1.640995 1.85258,-7.183546 2.91089,-12.316781 l 1.924202,-9.333154 -1.400135,-1.490375 c -1.56645,-1.66741 -0.956729,-2.049391 0.772828,-0.484164 1.038815,0.940114 1.178006,0.847883 2.118927,-1.40406 1.713435,-4.100825 4.642406,-8.168143 7.117017,-9.88305 2.773548,-1.92207 4.788064,-2.230751 2.424391,-0.371486 -1.686899,1.326916 -3.729951,6.056704 -4.465824,10.338659 -0.237227,1.380392 -0.576471,3.003921 -0.753875,3.607843 -0.263832,0.898136 0.07751,1.098039 1.87496,1.098039 1.208633,0 2.9439,-0.283775 3.856148,-0.630611 1.413512,-0.537417 1.600883,-0.893555 1.267854,-2.409826 -0.531171,-2.418403 1.250074,-4.092709 2.514485,-2.363523 1.915813,2.620031 -2.119821,6.031411 -7.135111,6.031411 h -2.527355 l -0.71174,3.607843 c -2.389613,12.113077 -6.235693,19.214542 -11.998709,22.154613 -3.165727,1.615034 -7.076449,1.59844 -8.711855,-0.03697 z"
     id="path2" />
  <path
     style="fill:#ffffff;fill-opacity:1;stroke-width:0.313726"
     d="m 19.267509,56.982193 c -2.397752,-1.084518 -3.071623,-3.746011 -1.417261,-5.597566 1.620763,-1.813948 4.343604,-1.231883 4.899388,1.047348 0.157668,0.646585 -0.0142,1.069186 -0.797774,1.961628 -0.580084,0.660681 -0.923176,1.334406 -0.818479,1.607241 0.295368,0.769716 2.128562,0.561625 3.667941,-0.416358 3.160562,-2.007943 4.8189,-6.179517 6.881283,-17.309976 0.367677,-1.984314 1.024161,-5.070856 1.458854,-6.858982 l 0.79035,-3.25114 -0.887474,-0.948065 c -0.488111,-0.521436 -1.693903,-1.548945 -2.679538,-2.283353 -3.220706,-2.399783 -6.46168,-2.545886 -7.799671,-0.351607 -1.084646,1.778798 -0.795015,2.795496 1.532458,5.379421 3.385881,3.758953 4.078431,5.918238 2.796351,8.71867 -1.698433,3.709866 -6.250554,5.276872 -10.742672,3.698019 -2.99984,-1.054359 -4.852413,-3.133954 -4.85554,-5.450557 -0.0022,-1.605494 1.212922,-2.887176 2.445553,-2.57958 1.98297,0.494838 2.587436,1.995536 1.653866,4.106026 -0.342712,0.774755 -0.541476,1.621387 -0.441698,1.881403 0.297595,0.77552 1.853255,1.390725 3.516708,1.390725 1.915518,0 3.364651,-1.048655 3.665543,-2.652544 0.24214,-1.290721 -0.105922,-1.983748 -2.212987,-4.406279 -2.19131,-2.51939 -2.981534,-4.140807 -2.981534,-6.117647 0,-1.944368 0.793989,-3.608745 2.390074,-5.010126 1.645464,-1.444737 3.115196,-1.991259 5.296201,-1.969404 2.69986,0.02706 5.264693,1.281842 8.388189,4.103734 0.658362,0.594789 1.243469,1.026343 1.30024,0.959008 0.05677,-0.06734 0.745167,-1.488764 1.52977,-3.15873 1.705104,-3.629182 2.867857,-5.375813 4.930164,-7.405845 3.839599,-3.779513 9.348556,-4.594268 12.146413,-1.796411 0.795737,0.795739 1.038557,1.305953 1.038557,2.18223 0,2.505221 -3.034036,3.636881 -4.492194,1.675535 -0.623037,-0.838042 -0.623818,-0.871646 -0.04978,-2.144623 0.807758,-1.79129 0.416775,-2.340949 -1.65457,-2.326047 -3.747291,0.02696 -5.862084,3.99628 -7.72459,14.498522 l -0.180821,1.019608 h 2.181885 c 2.317958,0 4.53195,-0.666748 4.83482,-1.456015 0.09837,-0.256346 -0.03191,-0.87366 -0.289515,-1.371808 -0.639965,-1.237558 -0.592191,-1.652359 0.285246,-2.476667 0.941829,-0.884803 1.966597,-0.764629 2.777509,0.325716 0.818626,1.100717 0.505609,2.489757 -0.87136,3.866725 -1.407235,1.407235 -3.80892,2.189412 -6.757798,2.20087 l -2.372546,0.0092 -0.563915,3.137255 c -1.902096,10.582008 -4.400613,16.174431 -9.181786,20.551567 -2.454929,2.24747 -4.672636,3.246202 -7.469991,3.364066 -1.39434,0.05875 -2.549395,-0.06728 -3.163864,-0.345205 z"
     id="path3" />
  <path
     style="fill:#ffffff;fill-opacity:1;stroke-width:0.313726"
     d="m 19.267509,56.982193 c -2.36362,-1.069079 -3.072799,-3.7521 -1.463587,-5.537158 1.19922,-1.330265 2.820993,-1.567438 3.933323,-0.575219 1.324638,1.1816 1.386031,2.189619 0.214617,3.523787 -1.202505,1.369578 -1.063461,2.076985 0.408243,2.076985 1.523247,0 3.687223,-1.508028 4.919414,-3.428232 1.547818,-2.412063 2.647064,-6.040706 4.256162,-14.049708 0.790029,-3.932231 1.65555,-7.99657 1.923381,-9.031864 l 0.486964,-1.882353 -1.98397,-1.802172 c -4.02968,-3.660427 -8.072476,-4.311808 -9.509846,-1.53224 -0.918448,1.776083 -0.629975,2.690705 1.645376,5.216765 3.385881,3.758953 4.078431,5.918238 2.796351,8.71867 -1.647516,3.59865 -5.94451,5.177942 -10.44883,3.840303 -4.153316,-1.233403 -6.5404111,-5.39415 -4.350888,-7.583673 0.624947,-0.624947 0.985513,-0.753833 1.647059,-0.588748 1.98297,0.494838 2.587436,1.995536 1.653866,4.106026 -0.342712,0.774755 -0.541476,1.621387 -0.441698,1.881403 0.297595,0.77552 1.853255,1.390725 3.516708,1.390725 1.915518,0 3.364651,-1.048655 3.665543,-2.652544 0.24214,-1.290721 -0.105922,-1.983748 -2.212987,-4.406279 -2.19131,-2.51939 -2.981534,-4.140807 -2.981534,-6.117647 0,-1.944368 0.793989,-3.608745 2.390074,-5.010126 1.645464,-1.444737 3.115196,-1.991259 5.296201,-1.969404 2.69986,0.02706 5.264693,1.281842 8.388189,4.103734 0.658362,0.594789 1.24221,1.026343 1.297441,0.959008 0.05523,-0.06734 0.806626,-1.604781 1.669765,-3.416546 3.195683,-6.707865 7.020423,-10.158486 11.733584,-10.585861 3.368681,-0.305461 6.244354,1.480954 6.244354,3.879094 0,2.382321 -2.96736,3.584102 -4.388542,1.777359 -0.683859,-0.869385 -0.680957,-1.043075 0.04782,-2.860648 0.379717,-0.947017 0.361917,-1.086688 -0.189911,-1.490196 -1.50523,-1.100651 -4.403021,0.03412 -5.829352,2.28276 -1.108715,1.747916 -2.218162,5.085883 -2.951407,8.879845 -0.283458,1.466667 -0.583515,2.984314 -0.666794,3.372549 -0.145779,0.679603 -0.06906,0.705883 2.060717,0.705883 2.162513,0 4.290591,-0.589581 4.737368,-1.31248 0.117939,-0.190832 -0.01179,-0.957367 -0.288298,-1.703411 -0.491953,-1.32736 -0.486736,-1.373474 0.243401,-2.150669 0.960144,-1.022027 1.989998,-1.010154 2.81007,0.0324 0.787445,1.001072 0.805525,1.417941 0.123809,2.854552 -1.004417,2.116653 -4.891802,3.71173 -8.504479,3.489569 l -1.440234,-0.08857 -0.993805,4.851068 c -1.238692,6.046436 -1.803827,8.008271 -3.145263,10.918608 -2.121762,4.6033 -5.858929,8.799093 -9.232944,10.366001 -2.077788,0.964935 -5.567617,1.235166 -7.085432,0.548653 z"
     id="path4" />
  <path
     style="fill:#ffffff;fill-opacity:1;stroke-width:0.313726"
     d="m 19.267509,56.982193 c -2.36362,-1.069079 -3.072799,-3.7521 -1.463587,-5.537158 1.19922,-1.330265 2.820993,-1.567438 3.933323,-0.575219 1.297618,1.1575 1.363318,2.127332 0.23988,3.540995 -0.741799,0.933431 -0.879723,1.30491 -0.606655,1.633936 0.781758,0.94196 3.028623,0.173248 4.78768,-1.637996 2.177008,-2.241593 3.885366,-7.222475 5.533083,-16.132241 0.366967,-1.984314 1.018986,-5.090196 1.448931,-6.901961 l 0.781719,-3.294118 -1.823687,-1.67771 C 28.04083,22.668123 23.894,21.955904 22.45221,24.744019 c -0.742749,1.436318 -0.600363,2.36478 0.591813,3.859043 3.193967,4.003294 3.956755,5.129282 4.282949,6.322269 0.727857,2.661984 -0.798264,5.636807 -3.642695,7.100602 -2.855702,1.469595 -7.317826,1.121776 -9.880061,-0.770144 -2.420177,-1.787027 -3.248517,-4.781185 -1.740045,-6.289657 0.932579,-0.932579 1.709442,-0.974111 2.760226,-0.147564 1.055125,0.829962 1.292086,1.94241 0.710329,3.334751 -0.792537,1.896807 -0.639343,2.594721 0.691613,3.150831 2.581584,1.078654 5.497665,-0.03669 5.915222,-2.262467 0.234663,-1.250859 -0.124225,-1.955366 -2.228708,-4.375016 -2.18061,-2.507177 -2.971677,-4.135709 -2.971677,-6.117647 0,-1.944368 0.793989,-3.608745 2.390074,-5.010126 1.645464,-1.444737 3.115196,-1.991259 5.296201,-1.969404 2.69986,0.02706 5.264693,1.281842 8.388189,4.103734 0.658362,0.594789 1.24221,1.026343 1.297441,0.959008 0.05523,-0.06734 0.806626,-1.604781 1.669765,-3.416546 3.195683,-6.707865 7.020423,-10.158486 11.733584,-10.585861 3.368681,-0.305461 6.244354,1.480954 6.244354,3.879094 0,2.382321 -2.96736,3.584102 -4.388542,1.777359 -0.683859,-0.869385 -0.680957,-1.043075 0.04782,-2.860648 0.379717,-0.947017 0.361917,-1.086688 -0.189911,-1.490196 -1.483435,-1.084713 -4.443583,0.0981 -5.868869,2.345071 -1.072257,1.690422 -2.186621,5.064846 -2.91189,8.817534 -0.283458,1.466667 -0.583515,2.984314 -0.666794,3.372549 -0.145779,0.679603 -0.06906,0.705883 2.060717,0.705883 2.365023,0 4.27317,-0.590467 4.591846,-1.420926 0.107232,-0.279444 0.01154,-1.063874 -0.212649,-1.743179 -0.380414,-1.152663 -0.358664,-1.28721 0.325895,-2.015889 0.948257,-1.009375 1.980728,-0.99246 2.797449,0.04583 0.787445,1.001072 0.805525,1.417941 0.123809,2.854552 -1.004888,2.117644 -4.891871,3.711726 -8.508335,3.489332 l -1.444091,-0.0888 -0.852115,4.276466 c -1.584526,7.952184 -2.895788,11.625042 -5.540918,15.520166 -1.689327,2.487646 -4.838038,5.353076 -6.965295,6.338651 -2.08443,0.965729 -5.573451,1.236098 -7.091403,0.549522 z"
     id="path5" />
</svg>
